<?xml version="1.0" encoding="UTF-8"?>
<svg width="100" height="115.45" clip-rule="evenodd" fill-rule="evenodd" image-rendering="optimizeQuality" shape-rendering="geometricPrecision" text-rendering="geometricPrecision" version="1.1" viewBox="0 0 100 115.45" xml:space="preserve" xmlns="http://www.w3.org/2000/svg">
   <defs>
      <style type="text/css">
         <![CDATA[
    .fil0 {fill:black;fill-rule:nonzero}
   ]]>
      </style>
   </defs>
   <g transform="matrix(.015342 0 0 .015342 -107.6 -52.262)">
      
      <path class="fil0" d="m10231 7427.1c17.42 17.42 37 13.03 56.58 13.03 17.42 0 37 4.39 54.35-13.03l1668.8-1605.6h-809.38l156.65-278.45c261.11 73.93 626.59-84.88 802.82-439.49l65.3-130.59h783.24c73.93 0 102.22 19.58 102.22 47.87 0 17.42-8.71 45.71-28.29 56.58l-2795.7 2721.8-2826.2-2721.8c-19.58-10.87-28.29-39.16-28.29-56.58 0-28.29 28.29-47.87 102.29-47.87h3507.2c-10.87 187.17 45.71 354.69 147.94 467.78l-232.82 380.75h-2395.4zm950.75-2891.4c-37 65.22-65.21 130.51-93.51 195.81h-3907.5c-111.01 0-167.52 73.93-167.52 139.22 0 65.3 36.93 121.81 102.22 187.1l3050.2 2982.9v2349.7l-783.24 345.91c-56.51 19.58-73.93 65.29-73.93 102.22 0 47.87 26.14 93.59 91.35 93.59h1781.9c65.3 0 93.59-45.72 93.59-93.59 0-36.93-19.58-82.64-74.01-102.22l-783.23-345.91v-2349.7l3011.2-2982.9c56.51-56.58 102.22-130.51 102.22-187.1 0-82.64-84.88-139.22-215.39-139.22h-1024.7c28.22-215.39-28.29-411.2-150.17-530.85l374.2-652.72c17.42-28.29 17.42-37.01 17.42-47.88 0-37-110.93-93.51-139.22-93.51-8.72 0-28.3 10.87-45.72 47.8l-382.91 644.01c-261.03-76.16-587.43 102.3-783.24 437.34z"/>
   </g>
</svg>
