<?xml version="1.0" encoding="UTF-8"?>
<svg width="26.458mm" height="26.353mm" clip-rule="evenodd" fill-rule="evenodd" image-rendering="optimizeQuality" shape-rendering="geometricPrecision" text-rendering="geometricPrecision" version="1.1" viewBox="0 0 2645.8 2635.3" xml:space="preserve" xmlns="http://www.w3.org/2000/svg">
 <defs>
  <style type="text/css">
   <![CDATA[
    .fil0 {fill:black;fill-rule:nonzero}
   ]]>
  </style>
 </defs>
 <g transform="matrix(.45969 0 0 .45969 -3258.1 -2295.4)">
  
  <path class="fil0" d="m9971.6 6784.5c708.34 0 2402.7-119.71 2402.7-927.45 0-45.86-12.82-152.84-22.93-229.31h-4762.1c-20.32 76.47-20.32 183.45-20.32 229.31 0 807.74 1702 927.45 2402.6 927.45zm-2654.9-940.18c0-216.58 89.11-491.75 152.84-621.67h4991.3c66.27 129.92 152.85 405.09 152.85 634.4 0 1057.4-2086.7 1167-2642.1 1167-568.23 0-2654.9-109.51-2654.9-1179.7zm5526.3 12.73c0-361.75-142.65-863.71-305.69-863.71h-5144.2c-163.05 0-305.69 491.76-305.69 863.71 0 1177.2 1638.2 1319.9 2489.3 1462.5 89.11 96.78 252.24 185.98 252.24 468.82v2249.8c-272.64 219.11-558.02 435.7-830.66 481.56-109.51 20.4-119.71 206.38 22.93 206.38h1888c152.84 0 142.64-185.98 22.93-206.38-272.65-45.86-558.02-262.45-830.67-481.56v-2249.8c0-282.84 163.14-372.04 252.24-468.82 894.32-142.64 2489.3-285.38 2489.3-1462.5z"/>
 </g>
</svg>
