<?xml version="1.0" encoding="UTF-8"?>
<svg width="100.5mm" height="100.17mm" version="1.1" viewBox="0 0 100.5 100.17"
   xmlns="http://www.w3.org/2000/svg">
   <g transform="matrix(.26458 0 0 .26458 0 -10.364)" fill="#fff">
      <path d="m368.59 228.91c-5.5234 0-10 4.4766-10 10v128.85c-0.0195 16.562-11.438 29.984-28 30h-280.59c-16.562-0.0156-29.98-13.438-30-30v-278.59c0.01953-16.559 13.438-29.98 30-30l131.74 6.3e-4c5.5234 2.6e-5 10-4.4766 10-10 0-5.5195-4.4766-10-10-10l-131.74-6.3e-4c-27.602 0.03125-49.969 22.398-50 50v278.59c0.03125 27.602 22.398 49.969 50 50h280.59c27.602-0.0312 47.969-22.398 48-50v-128.85c0-5.5234-4.4766-10-10-10z"/>
   </g>
   <path d="m65 2.9104 33-0.26442v32.354" fill="none" stroke="#fff" stroke-linecap="round" stroke-linejoin="round" stroke-width="5"/>
   <path d="m98 2.646-49.264 49.265" fill="none" stroke="#fff" stroke-linecap="round" stroke-width="5"/>
</svg>
