<?xml version="1.0" encoding="UTF-8"?>
<svg clip-rule="evenodd" fill-rule="evenodd" image-rendering="optimizeQuality" shape-rendering="geometricPrecision" text-rendering="geometricPrecision" version="1.1" viewBox="0 0 2645.8 7661.8" xml:space="preserve"
   xmlns="http://www.w3.org/2000/svg">
   <defs>
      <style type="text/css">
         <![CDATA[
    .fil0 {fill:black;fill-rule:nonzero}
   ]]>
      </style>
   </defs>
   <g transform="matrix(.96254 0 0 .96254 -9105.1 -3188.4)">

      <path class="fil0" d="m10843 7952.7c681.43 0 936.1-418.18 936.1-1065.6 0-299.27-63.63-1354.3-80.63-1409.5h-1747c-19.1 55.21-82.81 1110.2-82.81 1409.5 0 647.43 290.85 1065.6 974.31 1065.6zm-1173.8-1065.6c0-435.18 171.94-3147.9 182.54-3247.7 8.5-108.23 44.53-135.83 135.83-135.83h1647.2c99.81 0 127.41 27.6 135.84 127.33 8.5 135.84 227.14 2821 227.14 3256.2 0 827.87-464.81 1265.1-1154.7 1265.1-683.46 0-1173.8-426.61-1173.8-1265.1zm2538.7 0c0-753.56-254.67-3275.3-273.78-3392-19.1-127.34-19.1-182.54-199.54-182.54h-1865.9c-171.93 0-182.54 55.2-199.46 182.54-19.11 116.73-210.15 2638.5-210.15 3392 0 927.6 401.19 1237.6 1129.2 1511.3 72.13 80.7 135.83 244.14 135.83 326.87v1965.6c-227.14 191.04-445.78 371.48-672.85 409.69-110.41 16.99-118.91 171.93 16.92 171.93h1555.9c118.91 0 110.41-154.94 19.1-171.93-227.14-38.21-445.78-218.65-683.46-409.69v-1965.6c0-82.73 74.24-246.17 146.44-326.87 745.06-273.78 1101.6-583.73 1101.6-1511.3z"/>
   </g>
</svg>
