<?xml version="1.0" encoding="UTF-8"?>
<svg clip-rule="evenodd" fill-rule="evenodd" image-rendering="optimizeQuality" shape-rendering="geometricPrecision" text-rendering="geometricPrecision" version="1.1" viewBox="0 0 2645.8 5173.5" xml:space="preserve"
   xmlns="http://www.w3.org/2000/svg">
   <defs>
      <style type="text/css">
         <![CDATA[
    .fil0 {fill:black;fill-rule:nonzero}
   ]]>
      </style>
   </defs>
   <g transform="matrix(.68268 0 0 .68268 -5134.9 -2594.2)">

      <path class="fil0" d="m9780.3 10191c-16.4-9.11-54.71-23.71-54.71-87.46 0-14.6 7.3-45.6 14.6-69.31l187.78-679.98c9.1-16.41 16.4-47.35 78.35-47.35 16.41 0 40.11 0 71.12 9.11l679.98 178.66c21.9 7.24 54.71 30.95 54.71 94.76 0 21.9-9.17 62.01-16.41 92.96l-180.47 656.27c-7.3 16.41-21.9 47.41-76.61 47.41-16.41 0-63.82-9.1-71.05-9.1zm-242.48-1435.3c-23.71 9.17-61.95 16.41-78.35 16.41-54.72 0-62.02-38.24-69.31-54.65l-196.89-710.99c-7.3-23.7-7.3-38.3-7.3-54.71 0-47.35 40.12-61.95 54.72-71.05l563.32-147.66c193.01-75.71 262.77-55.94 335.44 242.42l133.06 468.5c0 7.3 7.3 31 7.3 47.41 0 54.71-38.3 69.31-54.71 78.42zm-563.26 1965.8c0 23.71 16.4 38.3 40.05 38.3h1952.4c23.7 0 40.11-14.59 40.11-38.3v-5069.7h-2032.6zm-116.72 235.19c-54.65 0-78.36-23.71-78.36-78.42v-5704.1c0-54.71 23.71-78.42 78.36-78.42h2266c54.65 0 78.35 23.71 78.35 78.42v5704.1c0 54.71-23.7 78.42-78.35 78.42zm-273.43 311.73c0 71.05 40.11 109.36 109.36 109.36h2601.4c71.12 0 102.13-38.31 102.13-109.36v-6265.6c0-71.12-38.31-102.06-109.36-102.06h-2335.3c116.66-133.12 195.07-249.78 195.07-397.44 0-251.53-195.07-477.61-382.84-703.69-187.78 233.38-382.85 468.56-382.85 703.69 0 54.71 7.3 109.42 23.7 154.96-71.05-45.54-149.47-78.35-242.42-78.35-204.18 0-422.96 109.35-641.68 211.41 211.42 280.79 406.49 563.33 696.33 563.33 109.42 0 226.08-47.42 366.44-125.77z"/>
   </g>
</svg>
