<?xml version="1.0" encoding="UTF-8" standalone="no"?>
<svg xmlns:svg="http://www.w3.org/2000/svg"
   xmlns="http://www.w3.org/2000/svg" viewBox="0 0 92 92" version="1.1" id="svg8">
   <defs id="defs2">
      <style type="text/css" id="style833">
         <![CDATA[
    .fil0 {fill:white;fill-rule:nonzero}
   ]]>
      </style>
   </defs>

   <g id="layer1">
      <g id="g852" style="clip-rule:evenodd;fill-rule:evenodd;image-rendering:optimizeQuality;shape-rendering:geometricPrecision;text-rendering:geometricPrecision" transform="matrix(0.0089386,0,0,0.0089386,-42.5,-30)">
         <g>
            <circle fill="#b8f2e6" id="circle837" r="5000" cx="9900" cy="8500" />

            <path fill="#ffffff" d="m 10377.25,7458.99 c 31.21,17.34 49.08,69.89 28.92,102.02 l -357.09,620.65 c -27.34,44.33 -67.04,40.54 -108.81,22.06 l -612.11,-350.23 c -22.1,-15.32 -35.74,-44.24 -35.74,-73.15 0,-6.78 13.64,-44.19 22.14,-51.02 l 341.77,-596.79 c 16.64,-37.64 67.21,-45.95 101.99,-30.64 z m 379.19,1683.3 c 22.09,8.49 50.97,30.59 50.97,73.15 0,8.49 -22.14,59.46 -28.88,79.89 l -219.37,612.11 c -6.77,22.09 -42.51,44.19 -71.39,44.19 -8.54,0 -66.33,-13.6 -81.6,-22.1 l -603.62,-217.6 c -28.92,-15.32 -51.06,-44.24 -51.06,-73.16 0,-6.78 6.83,-44.19 13.65,-57.83 l 226.15,-634.17 c 6.82,-22.09 44.19,-44.19 73.1,-44.19 6.78,0 22.1,0 66.34,15.28 z M 9306.06,4522.58 c 22.1,0 79.93,0 139.4,15.28 l -146.22,392.83 -261.84,-328.18 c 64.66,-51.01 204.05,-79.93 268.66,-79.93 z m 277.12,66.33 c 130.99,57.84 261.89,175.14 261.89,255.03 0,28.91 -20.42,64.61 -51.01,73.1 l -357.1,57.84 z m -829.72,452.26 c 0,-139.4 57.83,-241.43 166.64,-343.45 l 270.34,321.35 -357.09,64.61 c -28.83,8.5 -79.89,-13.6 -79.89,-42.51 z m 2353.2,1164.67 c 51.02,0 73.11,22.14 73.11,73.15 v 5320.25 c 0,51.01 -22.09,73.1 -73.11,73.1 H 8993.21 c -50.97,0 -73.11,-22.09 -73.11,-73.1 V 6278.99 c 0,-51.01 22.14,-73.15 73.11,-73.15 h 503.26 l 86.71,518.63 h -481.12 v 4728.5 c 0,22.14 15.31,35.74 37.36,35.74 h 1821.03 c 22.09,0 37.41,-13.6 37.41,-35.74 v -4728.5 c -263.65,0 -669.24,0 -1254.86,0 l -93.49,-518.63 c 802.3,0 991.57,0 1457.15,0 z m -1128.97,3927.75 c 42.47,-13.6 57.79,-13.6 64.57,-13.6 28.91,0 66.33,22.09 73.15,42.47 l 226.1,634.21 c 22.32,50.04 18.88,105.99 -37.37,130.9 l -603.62,219.37 c -15.27,6.82 -73.1,22.1 -79.93,22.1 -30.59,0 -66.28,-22.1 -73.06,-44.2 l -219.37,-612.11 c -6.82,-22.14 -28.92,-73.11 -28.92,-79.89 0,-44.23 28.92,-66.33 51.01,-73.15 z M 9124.11,4327.07 c -421.66,115.63 -634.17,538.96 -634.17,836.5 0,102.07 73.07,117.39 101.98,117.39 l 700.5,-124.17 13.64,117.35 c -226.1,79.88 -408.06,239.74 -408.06,421.66 0,168.35 161.54,277.16 321.35,328.17 h -379.18 c -66.29,0 -102.03,37.41 -102.03,101.98 v 5837.16 c 0,66.28 35.74,101.98 102.03,101.98 h 2426.31 c 66.33,0 95.25,-35.7 95.25,-101.98 V 6119.18 c 0,-66.33 -37.41,-95.21 -102.07,-95.21 -80.37,0 -249.12,0 -1632.24,0 226.14,-79.93 379.18,-239.79 379.18,-430.2 0,-159.77 -248.28,-357.05 -554.32,-334.95 l -15.32,-124.17 685.27,-124.08 c 22.1,-6.82 59.51,-57.79 59.51,-86.7 -59.51,-299.26 -445.52,-634.21 -816.17,-634.21 -22.09,0 -44.23,0 -88.42,6.82 l -50.97,-283.98 c -6.83,-35.7 -6.83,-42.52 -13.65,-42.52 -22.09,0 -146.21,20.42 -146.21,35.74 0,6.78 0,15.27 6.82,44.19 z" id="path839" />

         </g>
      </g>
   </g>
</svg>
