<?xml version="1.0" encoding="UTF-8"?>
<svg clip-rule="evenodd" fill-rule="evenodd" image-rendering="optimizeQuality" shape-rendering="geometricPrecision" text-rendering="geometricPrecision" version="1.1" viewBox="0 0 2645.8 2727.3" xml:space="preserve"
   xmlns="http://www.w3.org/2000/svg">
   <defs>
      <style type="text/css">
         <![CDATA[
    .fil0 {fill:white;fill-rule:nonzero}
   ]]>
      </style>
   </defs>
   <g transform="matrix(.4995 0 0 .4995 -4028.6 -2557.7)">

      <path class="fil0" d="m10185 9090.7c-39.91 8.94-70.87 18.06-91.73 17.97-58.5-0.18-88.92-28.8-98.04-59.5l-187.79-555.4-773.42-137.86c-30.52-9.66-79.45-50.01-78.91-120.52l179.57-974.76c9.57-30.6 10.11-70.23 101.47-69.78 27.99 0 89.2 10.29 150.05 22.39l843.76 148.15c49.2 9.57 79.08 80.17 78.81 120.25l-52.09 332.68 331.96-119.17c39.9-9.03 70.78-18.23 101.02-17.96 60.94 0.45 91.46 19.68 100.57 50.19l304.88 868.59c9.12 40.08 17.97 70.87 17.97 98.76-0.09 51.37-31.15 81.71-59.41 90.92zm1332.9-555.85c-67.53-0.54-105.45-48.12-114.2-77.64l-156.46-937.47c0.54-67.53 48.12-105.27 86.49-113.94l928.53-156.72c67.62 0.63 105.45 48.21 114.21 77.64l147.96 878.97c8.76 29.25 8.4 58.86 8.4 67.44-0.27 78.9-59.31 96.5-77.37 105.35zm-2917.2 789.68c0 33.13 22.93 56.06 56.06 56.06h4104.7c33.13 0 56.06-22.93 56.06-56.06v-2619.2h-4216.8zm-152.84 328.71c-76.47 0-109.6-33.14-109.6-109.51v-4041c0-76.38 33.13-109.51 109.6-109.51h4532.7c76.47 0 109.6 33.13 109.6 109.51v4041c0 76.37-33.13 109.51-109.6 109.51zm-382.16 774.6c0 99.31 55.97 152.85 152.84 152.85h4991.3c96.87 0 152.85-43.34 152.85-142.65v-5164.6c0-96.78-43.25-152.85-142.65-152.85h-5001.5c-96.87 0-152.84 56.07-152.84 152.85z"/>
   </g>
</svg>
