<?xml version="1.0" encoding="UTF-8" standalone="no"?>
<svg xmlns:dc="http://purl.org/dc/elements/1.1/"
   xmlns:cc="http://creativecommons.org/ns#"
   xmlns:rdf="http://www.w3.org/1999/02/22-rdf-syntax-ns#"
   xmlns:svg="http://www.w3.org/2000/svg"
   xmlns="http://www.w3.org/2000/svg" viewBox="30 6 135 215" version="1.1" id="svg8">

   <g id="layer1">
      <path style="fill:none;stroke:#000000;stroke-width:5.29166667;stroke-linecap:butt;stroke-linejoin:round;stroke-miterlimit:4;stroke-dasharray:none;stroke-opacity:1" d="m 38.811927,59.42835 c -8.287381,-0.705309 0.202105,10.398517 0.202105,10.398517 v 67.175893 77.57441 H 140.63197 L 140.40514,137.22959 140.29173,98.555796 140.17832,59.882002 89.596176,59.655176 52.101728,59.541763 Z" id="path857" />
   </g>
   <g id="layer2">
      <rect style="fill:#000000;fill-opacity:1;stroke:#000000;stroke-width:0.927632;stroke-linejoin:round;stroke-miterlimit:4;stroke-dasharray:none;stroke-opacity:1;stroke-linecap:round" id="rect864" width="2.1037664" height="172.86293" x="167.79283" y="-125.23626" transform="matrix(0.58919673,0.80798961,-0.42431286,0.90551565,0,0)" />
      <ellipse style="fill:#000000;fill-opacity:1;stroke:none;stroke-width:4.90708;stroke-linecap:round;stroke-linejoin:round;stroke-miterlimit:4;stroke-dasharray:none;stroke-opacity:1" id="path911" cx="151.67046" cy="-26.110773" rx="4.0421128" ry="8.6959667" transform="matrix(0.96275111,0.27038917,-0.37372561,0.92753931,0,0)" />
   </g>
   <g id="layer3">
      <path id="rect869" style="fill:#000000;fill-opacity:1;stroke:#000000;stroke-width:2.04717;stroke-linejoin:round;stroke-miterlimit:4;stroke-dasharray:none;stroke-opacity:1" d="m 46.574513,143.78694 v 63.19693 h 86.112377 v -63.19693 z m 15.558565,7.57337 c 0.187287,0.009 0.376982,0.0476 0.562905,0.11728 l 14.318602,5.36756 c 0.991589,0.37171 1.499848,1.49446 1.139585,2.51752 l -5.202426,14.77362 c -0.360263,1.02307 -1.44848,1.54745 -2.440068,1.17575 l -14.319097,-5.36755 c -0.991586,-0.37171 -1.499847,-1.49446 -1.139582,-2.51753 l 5.202427,-14.77362 c 0.292713,-0.83123 1.066076,-1.33335 1.877654,-1.29303 z M 107.341,164.50229 c 0.12673,9.7e-4 0.25526,0.015 0.38429,0.0431 l 14.90561,3.25059 c 1.0322,0.22511 1.68744,1.2637 1.46926,2.32867 l -3.15059,15.37825 c -0.21817,1.06496 -1.22482,1.74151 -2.25702,1.5164 l -14.90562,-3.2506 c -1.03219,-0.2251 -1.68744,-1.2637 -1.46926,-2.32866 l 3.15059,-15.37876 c 0.19091,-0.93185 0.98559,-1.56587 1.87274,-1.55905 z m -33.441571,17.4069 c 0.12669,-0.004 0.255864,0.006 0.385766,0.0295 l 15.00698,2.7084 c 1.039223,0.18757 1.729291,1.20163 1.547492,2.27384 l -2.62508,15.48334 c -0.181799,1.07221 -1.164658,1.78419 -2.203882,1.59661 l -15.00698,-2.70841 c -1.039223,-0.18757 -1.729785,-1.20162 -1.547983,-2.27383 L 72.08131,183.5353 c 0.159075,-0.93818 0.931285,-1.60074 1.818119,-1.62605 z" />
   </g>
</svg>
