<?xml version="1.0" encoding="UTF-8"?>
<svg width="19.651" height="31.811" version="1.1" viewBox="0 0 19.651 31.811" xmlns="http://www.w3.org/2000/svg">
 <g transform="matrix(.15169 0 0 .15169 -4.8273 -1.2383)" fill="none" stroke="#000" stroke-width="6.5923">
  <path d="m38.812 59.428c-8.2874-0.70531 0.2021 10.399 0.2021 10.399v144.75h101.62l-0.22683-77.348-0.22682-77.348-50.582-0.22683-37.494-0.11341z" fill="none" stroke="#000" stroke-linejoin="round" stroke-width="6.5923"/>
 </g>
 <g transform="matrix(.15169 0 0 .15169 -4.8273 -1.2383)" stroke="#000" stroke-linecap="round" stroke-linejoin="round">
  <rect transform="matrix(.5892 .80799 -.42431 .90552 0 0)" x="167.79" y="-125.24" width="2.1038" height="172.86" stroke-width="1.0704"/>
  <ellipse transform="matrix(.96275 .27039 -.37373 .92754 0 0)" cx="151.67" cy="-26.111" rx="4.0421" ry="8.696" stroke-width="1.005"/>
 </g>
 <g transform="matrix(.15169 0 0 .15169 -4.8273 -1.2383)">
  <path d="m46.575 143.79v63.197h86.112v-63.197zm15.559 7.5734c0.18729 9e-3 0.37698 0.0476 0.5629 0.11728l14.319 5.3676c0.99159 0.37171 1.4998 1.4945 1.1396 2.5175l-5.2024 14.774c-0.36026 1.0231-1.4485 1.5474-2.4401 1.1758l-14.319-5.3676c-0.99159-0.37171-1.4998-1.4945-1.1396-2.5175l5.2024-14.774c0.29271-0.83123 1.0661-1.3334 1.8777-1.293zm45.208 13.142c0.12673 9.7e-4 0.25526 0.015 0.38429 0.0431l14.906 3.2506c1.0322 0.22511 1.6874 1.2637 1.4693 2.3287l-3.1506 15.378c-0.21817 1.065-1.2248 1.7415-2.257 1.5164l-14.906-3.2506c-1.0322-0.2251-1.6874-1.2637-1.4693-2.3287l3.1506-15.379c0.19091-0.93185 0.98559-1.5659 1.8727-1.559zm-33.442 17.407c0.12669-4e-3 0.25586 6e-3 0.38577 0.0295l15.007 2.7084c1.0392 0.18757 1.7293 1.2016 1.5475 2.2738l-2.6251 15.483c-0.1818 1.0722-1.1647 1.7842-2.2039 1.5966l-15.007-2.7084c-1.0392-0.18757-1.7298-1.2016-1.548-2.2738l2.6256-15.483c0.15908-0.93818 0.93128-1.6007 1.8181-1.626z" stroke="#000" stroke-linejoin="round" stroke-width="2.0472"/>
 </g>
</svg>
